<?xml version="1.0"?>
<svg width="136" height="38" xmlns="http://www.w3.org/2000/svg" xmlns:svg="http://www.w3.org/2000/svg" version="1.1" xml:space="preserve">
 <defs>
  <linearGradient id="paint0_linear" x1="0" x2="0" y1="0" y2="1">
   <stop offset="0" stop-color="#FFE96D"/>
   <stop offset="1" stop-color="#E1C218"/>
  </linearGradient>
 </defs>
 <g class="layer">
  <title>Layer 1</title>
  <g id="svg_1">
   <g fill="none" id="svg_2" transform="matrix(0.666588 0 0 0.661669 131.053 84.2592)">
    <path clip-rule="evenodd" d="m-166.79,-94.06l0,0.01l-12.79,0c-0.48,0 -0.87,-0.15 -1.19,-0.44s-0.48,-0.67 -0.48,-1.11c0,-0.47 0.2,-0.96 0.61,-1.46l20.34,-24.84c0.38,-0.48 0.79,-0.78 1.25,-0.88c0.45,-0.1 0.86,-0.05 1.22,0.13c0.37,0.19 0.62,0.49 0.76,0.91c0.15,0.43 0.11,0.93 -0.1,1.52l-6.65,17.62l1.11,0l0,-0.01l12.79,0c0.48,0 0.87,0.15 1.19,0.45s0.48,0.66 0.48,1.1c0,0.47 -0.2,0.96 -0.61,1.46l-20.34,24.84c-0.38,0.48 -0.79,0.78 -1.25,0.88c-0.45,0.1 -0.86,0.05 -1.22,-0.13c-0.37,-0.19 -0.62,-0.49 -0.76,-0.91c-0.15,-0.43 -0.11,-0.93 0.1,-1.52l6.65,-17.62l-1.11,0z" fill="url(#paint0_linear)" fill-rule="evenodd" id="svg_3"/>
   </g>
   <text fill="#ff9000" font-family="Sans-serif" font-size="23" font-weight="bold" id="svg_6" letter-spacing="0" stroke="#000000" stroke-width="0" text-anchor="middle" transform="matrix(0.916645 0 0 0.856325 28.4548 -27.5092)" word-spacing="0" x="63.97" xml:space="preserve" y="53.53">Eldamar</text>
   <text fill="#ff9000" font-family="Helvetica" font-size="23" font-weight="bold" id="svg_5" stroke="#000000" stroke-width="0" style="cursor: move;" text-anchor="middle" transform="matrix(1 0 0 1 0 0) matrix(0.852875 0 0 0.708079 15.0803 10.9027)" x="75.5" xml:space="preserve" y="31.81">Swaps</text>
  </g>
 </g>
</svg>